<svg width="34" height="34" viewBox="0 0 34 34" fill="none" xmlns="http://www.w3.org/2000/svg">
<path d="M24.9494 14.4401C25.1014 14.971 25.655 15.2782 26.186 15.1262C26.7169 14.9742 27.0241 14.4206 26.8721 13.8896L25.9108 14.1648L24.9494 14.4401ZM23.5024 9.98568L24.2226 9.29186L24.2218 9.29107L23.5024 9.98568ZM18.5738 7.27277L18.7759 6.29339L18.774 6.29301L18.5738 7.27277ZM13.0191 7.83943L12.6252 6.92028L12.6242 6.92071L13.0191 7.83943ZM8.70392 11.4888L7.86351 10.9468L7.8635 10.9468L8.70392 11.4888ZM9.89959 24.0107L10.6227 23.32L10.6223 23.3195L9.89959 24.0107ZM22.039 25.2446L22.6083 26.0667L22.6086 26.0665L22.039 25.2446ZM26.5096 21.1638C26.7141 20.6508 26.464 20.0691 25.951 19.8645C25.438 19.66 24.8563 19.9101 24.6518 20.4231L25.5807 20.7934L26.5096 21.1638ZM24.9429 13.9133C24.804 14.4479 25.1247 14.9938 25.6592 15.1327C26.1938 15.2716 26.7397 14.9509 26.8786 14.4164L25.9108 14.1649L24.9429 13.9133ZM27.8844 10.546C28.0233 10.0115 27.7026 9.46558 27.1681 9.32667C26.6336 9.18775 26.0877 9.50846 25.9487 10.043L26.9166 10.2945L27.8844 10.546ZM25.6444 15.1287C26.1767 15.2758 26.7275 14.9635 26.8746 14.4312C27.0217 13.8989 26.7094 13.3481 26.1771 13.201L25.9108 14.1649L25.6444 15.1287ZM22.4244 12.164C21.892 12.0169 21.3412 12.3292 21.1941 12.8615C21.047 13.3938 21.3593 13.9446 21.8917 14.0917L22.158 13.1279L22.4244 12.164ZM25.9108 14.1648L26.8721 13.8896C26.378 12.1635 25.4683 10.5849 24.2226 9.29186L23.5024 9.98568L22.7823 10.6795C23.8011 11.737 24.5452 13.0282 24.9494 14.4401L25.9108 14.1648ZM23.5024 9.98568L24.2218 9.29107C22.7496 7.76642 20.8516 6.72163 18.7759 6.29339L18.5738 7.27277L18.3718 8.25214C20.0531 8.59902 21.5906 9.44531 22.783 10.6803L23.5024 9.98568ZM18.5738 7.27277L18.774 6.29301C16.7084 5.87095 14.5631 6.0898 12.6252 6.92028L13.0191 7.83943L13.413 8.75858C14.9764 8.08858 16.7071 7.91202 18.3736 8.25252L18.5738 7.27277ZM13.0191 7.83943L12.6242 6.92071C10.6724 7.75965 9.01489 9.16137 7.86351 10.9468L8.70392 11.4888L9.54433 12.0307C10.4802 10.5794 11.8275 9.44009 13.414 8.75816L13.0191 7.83943ZM8.70392 11.4888L7.8635 10.9468C5.06694 15.2837 5.61015 20.9726 9.17691 24.7019L9.89959 24.0107L10.6223 23.3195C7.69502 20.2589 7.2492 15.59 9.54434 12.0307L8.70392 11.4888ZM9.89959 24.0107L9.17647 24.7014C12.7083 28.3988 18.4048 28.9778 22.6083 26.0667L22.039 25.2446L21.4697 24.4225C18.0751 26.7734 13.4748 26.3058 10.6227 23.32L9.89959 24.0107ZM22.039 25.2446L22.6086 26.0665C24.3624 24.8511 25.7193 23.1459 26.5096 21.1638L25.5807 20.7934L24.6518 20.4231C24.0071 22.04 22.9002 23.4312 21.4694 24.4227L22.039 25.2446ZM25.9108 14.1649L26.8786 14.4164L27.8844 10.546L26.9166 10.2945L25.9487 10.043L24.9429 13.9133L25.9108 14.1649ZM25.9108 14.1649L26.1771 13.201L22.4244 12.164L22.158 13.1279L21.8917 14.0917L25.6444 15.1287L25.9108 14.1649Z" fill="white"/>
</svg>
